<?xml version="1.0" standalone="no"?>
<!DOCTYPE svg PUBLIC "-//W3C//DTD SVG 20010904//EN"
 "http://www.w3.org/TR/2001/REC-SVG-20010904/DTD/svg10.dtd">
<svg version="1.0" xmlns="http://www.w3.org/2000/svg"
 width="16pt" height="16" viewBox="0 0 400.000000 512.000000"
 preserveAspectRatio="xMidYMid meet">

<g transform="translate(0.000000,512.000000) scale(0.100000,-0.100000)"
fill="#FDD017" stroke="none">
<path d="M2535 5049 c-214 -27 -381 -72 -508 -136 -274 -137 -863 -539 -835
-569 8 -8 72 9 98 25 23 15 6 23 -25 11 -15 -6 -30 -9 -32 -6 -10 10 359 264
595 409 347 213 570 267 1097 263 l190 -1 90 -45 c149 -74 207 -144 351 -415
57 -107 94 -278 101 -465 9 -224 -27 -383 -137 -605 -85 -172 -191 -315 -350
-475 -196 -197 -412 -347 -631 -437 -216 -89 -246 -95 -539 -98 -254 -3 -541
13 -575 32 -11 7 50 12 192 16 210 7 320 18 557 56 157 26 264 60 334 108 29
20 137 123 240 228 l187 193 90 37 c129 53 255 120 292 155 42 39 85 104 106
158 22 54 23 258 3 353 -18 82 -68 186 -132 272 -27 36 -62 87 -78 112 -33 54
-119 121 -218 171 -78 40 -206 84 -241 84 -13 0 -37 12 -53 26 -55 49 -80 54
-271 53 -98 0 -219 -6 -268 -12 -50 -7 -104 -9 -120 -6 -17 4 -98 7 -181 8
-230 2 -296 -19 -509 -162 -49 -33 -106 -73 -126 -89 l-36 -29 -38 35 c-82 75
-158 86 -264 36 -35 -17 -76 -39 -91 -50 -43 -31 -50 -26 -43 30 5 41 3 50
-10 50 -11 0 -17 -16 -24 -61 l-8 -62 -46 -13 c-60 -18 -78 -38 -50 -55 19
-13 19 -14 -8 -48 -37 -48 -95 -148 -109 -191 -19 -54 3 -23 48 67 38 76 130
193 151 193 15 0 11 -629 -6 -770 -8 -69 -21 -210 -30 -315 -9 -104 -21 -230
-27 -280 -7 -55 -12 -353 -14 -769 -1 -373 -5 -699 -9 -724 -4 -25 -18 -70
-32 -101 -47 -105 -114 -306 -139 -413 -23 -101 -32 -227 -17 -241 10 -11 32
13 26 29 -8 22 26 207 57 314 27 88 49 151 119 335 l26 70 3 658 c2 502 6 657
15 657 7 0 32 -5 57 -10 99 -22 92 -19 75 -36 -11 -12 -12 -20 -5 -35 9 -15
22 -19 65 -19 46 0 55 -3 55 -18 0 -10 -9 -105 -20 -212 -11 -107 -20 -221
-20 -255 0 -33 -9 -139 -20 -235 -15 -130 -20 -243 -20 -440 0 -295 -9 -398
-45 -540 -27 -101 -31 -113 -116 -330 -41 -105 -54 -152 -58 -210 l-6 -75
-289 -3 -288 -2 6 27 c3 16 11 53 17 83 6 30 19 87 30 125 10 39 30 123 43
188 14 64 43 161 64 215 71 179 141 470 167 694 8 70 22 159 30 198 8 39 22
130 30 203 9 73 18 139 20 147 2 8 11 84 20 169 12 127 15 302 13 1005 l-3
851 -5 -870 c-6 -866 -10 -975 -45 -1178 -8 -48 -15 -103 -15 -122 0 -34 -28
-214 -35 -226 -2 -3 -11 -66 -20 -140 -18 -152 -82 -464 -119 -584 -14 -44
-41 -118 -59 -165 -19 -47 -47 -146 -62 -220 -15 -74 -32 -146 -37 -160 -18
-47 -55 -241 -46 -246 13 -8 572 -9 586 0 7 4 12 30 12 65 0 58 14 102 114
358 90 230 116 408 116 798 0 170 5 315 14 390 8 66 17 167 20 225 13 209 40
460 50 460 6 0 56 -48 111 -107 55 -59 152 -159 217 -223 125 -124 234 -246
340 -380 179 -227 212 -271 265 -345 56 -79 168 -232 227 -310 17 -22 57 -72
91 -111 33 -38 85 -101 115 -139 51 -63 389 -409 539 -550 75 -71 184 -195
177 -202 -2 -3 -28 0 -58 5 -93 18 -129 21 -123 11 4 -5 19 -9 35 -9 47 0 169
-29 196 -46 26 -18 77 -16 209 7 33 5 88 13 122 17 34 4 65 10 68 14 11 10
-208 434 -243 471 -11 12 -55 69 -97 127 -42 58 -98 134 -125 170 -28 36 -79
104 -114 152 -102 139 -177 227 -277 323 -51 50 -137 137 -192 195 -55 58
-144 150 -197 205 -53 55 -116 125 -140 155 -71 88 -140 162 -186 200 -23 19
-74 62 -112 95 -104 90 -171 144 -255 204 -42 30 -75 56 -73 58 1 2 74 -2 162
-8 88 -6 270 -9 409 -6 277 5 288 7 483 86 136 54 181 78 299 154 210 137 377
290 536 491 137 172 235 363 289 566 21 76 23 107 23 290 -1 187 -3 215 -28
320 -29 122 -33 131 -135 314 -89 159 -161 233 -292 299 l-95 47 -255 -1
c-140 -1 -286 -5 -325 -10z m123 -522 c17 -10 32 -22 32 -27 0 -15 -486 -6
-533 9 -22 7 -37 15 -34 17 10 10 210 22 352 20 122 -1 156 -5 183 -19z m-818
-36 c-189 -45 -324 -87 -427 -137 -62 -29 -113 -51 -113 -49 0 5 188 125 238
151 78 40 138 52 262 52 l115 0 -75 -17z m267 -3 l86 -21 -114 -42 c-63 -23
-154 -60 -204 -83 -49 -22 -119 -45 -155 -52 -130 -22 -276 -86 -404 -176 -37
-25 -69 -45 -70 -43 -2 2 -6 31 -9 64 -3 33 -9 69 -12 80 -5 17 8 28 79 68
161 92 303 142 576 202 132 29 124 29 227 3z m629 -39 l29 -32 -45 7 c-25 4
-103 16 -174 27 -71 11 -132 21 -134 24 -3 3 62 5 144 5 l150 0 30 -31z m154
-20 c98 -37 225 -111 273 -156 51 -50 47 -63 -5 -18 -58 49 -163 99 -281 132
-77 21 -100 32 -117 55 l-21 29 38 -7 c21 -3 72 -19 113 -35z m-389 -4 c90
-14 169 -27 174 -30 6 -2 -58 -4 -141 -4 -117 -1 -181 -7 -285 -26 -183 -35
-321 -55 -366 -54 -37 1 -37 1 37 36 41 20 122 53 180 75 122 45 131 45 401 3z
m296 -68 c34 -35 213 -352 264 -471 38 -86 46 -113 38 -129 -12 -22 -126 -152
-223 -254 -48 -51 -88 -83 -132 -104 -36 -18 -67 -30 -69 -27 -3 3 18 24 46
48 65 55 138 167 180 273 30 78 31 87 27 192 -6 125 -24 185 -82 263 -20 27
-52 85 -72 128 -21 44 -44 87 -53 98 -15 18 -14 18 19 11 19 -4 45 -17 57 -28z
m-70 -17 c7 -14 22 -47 34 -75 12 -27 40 -77 64 -110 66 -94 89 -170 89 -295
0 -96 -2 -111 -32 -178 -46 -107 -112 -200 -189 -269 -61 -54 -78 -63 -162
-88 -93 -27 -353 -130 -505 -199 -64 -30 -106 -40 -220 -56 -78 -11 -197 -29
-266 -40 -69 -11 -174 -25 -235 -31 -60 -5 -141 -13 -179 -17 -44 -5 -71 -12
-74 -20 -3 -11 0 -12 14 -4 11 5 70 13 132 17 62 4 170 15 240 26 70 11 174
26 232 34 58 8 121 17 140 21 60 12 29 -3 -105 -51 -168 -60 -235 -80 -358
-105 -98 -19 -362 -42 -381 -32 -5 3 -6 100 -2 236 4 127 11 337 15 466 4 130
10 240 14 246 3 6 15 71 27 145 l20 134 45 41 c24 23 60 51 79 62 45 27 54 16
62 -74 l6 -69 -62 -39 c-75 -48 -94 -73 -81 -109 8 -21 5 -32 -21 -66 -17 -23
-28 -44 -26 -47 3 -2 16 11 29 31 13 19 30 33 37 30 6 -2 12 3 12 13 0 14 87
82 105 82 3 0 5 -33 5 -73 0 -52 5 -79 16 -93 15 -19 16 -19 8 1 -5 11 -10 54
-12 96 l-3 76 38 30 c54 43 321 202 428 255 83 42 99 46 212 57 67 7 189 25
270 41 134 26 166 28 338 27 l189 -2 13 -25z m-1656 7 c31 -14 99 -72 99 -85
0 -5 -27 -30 -60 -55 l-60 -47 0 80 c0 68 -2 80 -17 80 -17 0 -106 -15 -175
-30 -21 -4 -38 -6 -38 -5 0 2 16 13 36 25 73 45 163 61 215 37z m1875 -22
c107 -38 175 -79 248 -149 l49 -46 -6 -80 c-4 -43 -13 -95 -21 -114 -23 -56
-99 -162 -104 -146 -17 60 -101 231 -177 365 -125 219 -119 205 -101 205 8 0
59 -16 112 -35z m-1916 -103 c0 -93 -7 -103 -110 -151 -68 -33 -102 -37 -145
-21 -25 10 -26 11 -23 101 l3 92 55 19 c49 17 136 33 198 37 21 1 22 -2 22
-77z m575 -20 c-77 -43 -188 -109 -246 -145 -59 -37 -109 -67 -113 -67 -16 0
-4 49 17 66 107 96 366 219 467 223 8 1 -48 -34 -125 -77z m-924 -1 c-14 -10
-31 -16 -39 -13 -12 4 -12 8 4 19 10 7 27 13 38 13 20 0 20 -1 -3 -19z m2669
-243 c46 -94 64 -201 58 -343 -3 -87 -7 -107 -33 -155 -54 -98 -114 -142 -309
-226 -43 -19 -80 -33 -82 -32 -1 2 15 27 36 55 22 28 58 86 80 128 40 75 40
77 40 183 0 59 -5 127 -10 150 -10 41 -9 46 24 91 60 82 87 145 93 223 l6 72
30 -35 c16 -19 46 -69 67 -111z m-2341 37 c-5 -44 -16 -114 -24 -155 -15 -78
-35 -545 -35 -819 0 -132 -2 -151 -17 -160 -15 -9 -16 -10 -2 -11 16 0 17 -21
3 -178 -5 -52 -8 -62 -22 -58 -10 2 -66 14 -125 27 -75 15 -111 27 -115 38 -6
16 25 408 59 731 12 122 19 261 19 407 l0 222 53 -6 c36 -4 64 0 92 11 38 16
37 14 -32 -51 -76 -71 -82 -84 -62 -142 14 -40 44 -43 36 -3 -3 15 -8 34 -12
43 -5 12 20 39 92 102 54 46 99 84 99 83 1 0 -3 -37 -7 -81z m221 7 c0 -23
-11 -36 -60 -70 -62 -42 -77 -41 -68 5 3 16 102 93 120 93 4 0 8 -13 8 -28z
m1895 -328 c4 -36 5 -100 3 -143 -4 -66 -10 -88 -42 -146 -20 -37 -60 -98 -87
-135 -44 -58 -59 -71 -112 -92 -303 -123 -384 -153 -514 -188 -169 -47 -259
-79 -356 -127 -251 -125 -859 -272 -1023 -247 l-44 6 7 122 c3 66 6 122 7 123
1 1 67 6 147 12 235 17 343 43 669 161 71 25 161 48 235 60 142 23 195 37 295
79 81 35 283 144 315 171 11 10 42 25 69 34 97 32 174 99 361 319 27 31 52 57
56 57 4 0 11 -30 14 -66z m-535 -348 c0 -10 -223 -127 -305 -161 -79 -33 -281
-82 -292 -71 -8 8 369 165 497 207 89 29 100 32 100 25z m270 -243 c-18 -21
-96 -103 -174 -182 -223 -227 -250 -240 -631 -296 -276 -41 -473 -49 -805 -35
-14 1 38 15 114 31 293 61 507 129 666 209 92 46 164 72 361 129 96 27 244 79
329 115 85 35 159 65 164 65 4 1 -6 -16 -24 -36z m-1494 -548 c62 -16 208
-121 416 -300 38 -33 86 -74 106 -90 44 -36 132 -130 187 -200 44 -56 351
-378 551 -579 115 -116 270 -306 428 -530 17 -22 69 -94 118 -158 81 -109 125
-181 149 -246 6 -18 -25 9 -93 79 -57 59 -124 123 -151 144 -51 40 -113 133
-123 184 -4 17 -10 34 -15 36 -11 8 10 -64 33 -109 11 -21 104 -122 207 -225
103 -102 194 -202 204 -222 18 -40 15 -115 -7 -144 -14 -19 -131 -45 -202 -45
-95 0 -109 7 -173 84 -32 39 -92 103 -132 141 -394 379 -591 595 -807 884
-472 634 -557 740 -746 925 -61 61 -102 103 -91 95 118 -86 506 -439 761 -693
89 -89 197 -192 240 -230 58 -51 103 -104 169 -201 129 -188 276 -384 343
-456 59 -64 216 -197 312 -265 30 -21 77 -58 105 -82 62 -55 141 -97 151 -80
4 7 0 16 -11 22 -34 20 -104 71 -166 121 -35 28 -99 79 -143 114 -186 147
-320 300 -532 605 -110 157 -155 209 -254 292 -41 35 -122 114 -180 176 -58
63 -131 135 -162 162 -32 27 -117 105 -190 175 -74 69 -173 160 -222 201 -198
167 -256 218 -365 319 l-113 106 33 7 c51 10 307 -2 365 -17z m2094 -2367 c0
-8 -59 -22 -66 -15 -2 2 1 28 8 56 l12 53 22 -44 c13 -24 23 -46 24 -50z
m-327 -55 c-7 -2 -19 -2 -25 0 -7 3 -2 5 12 5 14 0 19 -2 13 -5z"/>
<path d="M623 994 l-38 -79 -5 -265 c-4 -187 -9 -271 -18 -287 -18 -32 -69
-68 -132 -93 -67 -27 -171 -25 -213 3 l-27 18 2 217 3 217 34 -2 c22 -1 30 2
23 9 -5 5 -22 8 -38 6 l-29 -3 -5 -203 c-3 -111 -2 -215 2 -231 11 -41 60 -61
146 -61 59 0 79 5 140 36 118 59 116 52 122 364 5 244 8 269 28 318 12 29 29
64 38 78 9 13 14 27 11 31 -4 3 -24 -30 -44 -73z"/>
</g>
</svg>
